# This file uses centimeters as units for non-parametric coordinates.

mtllib roundabout_0.mtl
g default
v 7.892686 0.912285 -2.442305
v 6.394038 0.912285 -4.645540
v 4.645540 0.912285 -6.394038
v 2.442305 0.912285 -7.852286
v 0.000000 0.912285 -7.903465
v -2.442305 0.912285 -7.852286
v -4.645540 0.912285 -6.394037
v -6.394036 0.912285 -4.645539
v -7.892683 0.912285 -2.442304
v -7.903463 0.912285 0.000000
v -7.892683 0.912285 2.442304
v -6.394036 0.912285 4.645539
v -4.645539 0.912285 6.394035
v -2.442304 0.912285 7.852283
v -0.000000 0.912285 7.903462
v 2.442304 0.912285 7.852283
v 4.645538 0.912285 6.394035
v 6.394034 0.912285 4.645538
v 7.892681 0.912285 2.442304
v 7.903461 0.912285 0.000000
v 7.892686 1.042416 -2.442305
v 6.394038 1.042416 -4.645540
v 4.645540 1.042416 -6.394038
v 2.442305 1.042416 -7.852286
v 0.000000 1.042416 -7.903465
v -2.442305 1.042416 -7.852286
v -4.645540 1.042416 -6.394037
v -6.394036 1.042416 -4.645539
v -7.892683 1.042416 -2.442304
v -7.903463 1.042416 0.000000
v -7.892683 1.042416 2.442304
v -6.394036 1.042416 4.645539
v -4.645539 1.042416 6.394035
v -2.442304 1.042416 7.852283
v -0.000000 1.042416 7.903462
v 2.442304 1.042416 7.852283
v 4.645538 1.042416 6.394035
v 6.394034 1.042416 4.645538
v 7.892681 1.042416 2.442304
v 7.903461 1.042416 0.000000
v -1.991373 1.042416 -2.782096
v -1.056530 1.042416 -3.300150
v 0.004277 1.042416 -3.465659
v 1.057684 1.042416 -3.277373
v 2.018696 1.042416 -2.807927
v 2.768615 1.042416 -2.043731
v 3.232157 1.042416 -1.084123
v 3.407198 1.042416 -0.035321
v 3.230961 1.042416 1.013091
v 2.729864 1.042416 1.944934
v 1.979151 1.042416 2.682860
v 1.046353 1.042416 3.171858
v 0.004277 1.042416 3.332596
v -1.045643 1.042416 3.195998
v -1.993487 1.042416 2.714366
v -2.738314 1.042416 1.957289
v -3.221860 1.042416 1.012915
v -3.391086 1.042416 -0.035321
v -3.248469 1.042416 -1.092202
v -2.751261 1.042416 -2.037338
v 7.892681 0.912285 2.442304
v 7.903461 0.912285 0.000000
v 7.903461 1.042416 0.000000
v 7.892686 1.042416 -2.442305
v 7.892681 0.912285 2.442304
v 7.903461 0.912285 0.000000
v 7.892686 0.912285 -2.442305
v 7.892681 1.042416 2.442304
v 7.903461 1.042416 0.000000
v 7.892686 1.042416 -2.442305
v 3.407198 1.042416 -0.035321
v 7.903461 0.912285 0.000000
v 7.892681 0.912285 2.442304
v 7.903461 1.042416 0.000000
v 7.892686 1.042416 -2.442305
v 7.903461 0.912285 0.000000
v 7.892686 0.912285 -2.442305
v 7.892686 1.042416 -2.442305
v 7.903461 1.042416 0.000000
v 9.940369 0.912285 2.442304
v 9.951148 0.912285 0.000000
v 9.951148 1.042416 0.000000
v 9.940369 1.042416 2.442304
v 9.951148 0.912285 0.000000
v 9.940374 0.912285 -2.442305
v 9.940374 1.042416 -2.442305
v 9.951148 1.042416 0.000000
v -2.442304 0.912285 10.007174
v -0.000000 0.912285 10.058353
v -0.000000 1.042416 10.058353
v -2.442304 1.042416 10.007174
v 2.442304 0.912285 10.007174
v 2.442304 1.042416 10.007174
v -10.016428 0.912285 -2.442304
v -10.027207 0.912285 0.000000
v -10.027207 1.042416 0.000000
v -10.016428 1.042416 -2.442304
v -10.016428 0.912285 2.442304
v -10.016428 1.042416 2.442304
v 2.442305 0.912285 -10.197494
v 0.000000 0.912285 -10.248672
v 0.000000 1.042416 -10.248672
v 2.442305 1.042416 -10.197494
v -2.442305 0.912285 -10.197493
v -2.442305 1.042416 -10.197493
vt 0.375000 0.312500
vt 0.387500 0.312500
vt 0.400000 0.312500
vt 0.412500 0.312500
vt 0.425000 0.312500
vt 0.437500 0.312500
vt 0.450000 0.312500
vt 0.462500 0.312500
vt 0.475000 0.312500
vt 0.487500 0.312500
vt 0.500000 0.312500
vt 0.512500 0.312500
vt 0.525000 0.312500
vt 0.537500 0.312500
vt 0.550000 0.312500
vt 0.562500 0.312500
vt 0.575000 0.312500
vt 0.587500 0.312500
vt 0.600000 0.312500
vt 0.612500 0.312500
vt 0.625000 0.312500
vt 0.375000 0.688440
vt 0.387500 0.688440
vt 0.400000 0.688440
vt 0.412500 0.688440
vt 0.425000 0.688440
vt 0.437500 0.688440
vt 0.450000 0.688440
vt 0.462500 0.688440
vt 0.475000 0.688440
vt 0.487500 0.688440
vt 0.500000 0.688440
vt 0.512500 0.688440
vt 0.525000 0.688440
vt 0.537500 0.688440
vt 0.550000 0.688440
vt 0.562500 0.688440
vt 0.575000 0.688440
vt 0.587500 0.688440
vt 0.600000 0.688440
vt 0.612500 0.688440
vt 0.625000 0.688440
vt 0.648603 0.795466
vt 0.626409 0.751908
vt 0.591842 0.717341
vt 0.548284 0.695147
vt 0.500000 0.687500
vt 0.451716 0.695147
vt 0.408159 0.717341
vt 0.373591 0.751909
vt 0.351397 0.795466
vt 0.343750 0.843750
vt 0.351397 0.892034
vt 0.373591 0.935591
vt 0.408159 0.970159
vt 0.451716 0.992353
vt 0.500000 1.000000
vt 0.548284 0.992353
vt 0.591841 0.970159
vt 0.626409 0.935591
vt 0.648603 0.892034
vt 0.656250 0.843750
vt 0.415897 0.958982
vt 0.455294 0.980878
vt 0.500000 0.987849
vt 0.544394 0.979877
vt 0.584894 0.960124
vt 0.616498 0.927901
vt 0.636034 0.887421
vt 0.643411 0.843236
vt 0.635983 0.799036
vt 0.614865 0.759725
vt 0.583228 0.728610
vt 0.543917 0.708023
vt 0.500000 0.701242
vt 0.455753 0.707049
vt 0.415807 0.727348
vt 0.384418 0.759239
vt 0.364040 0.799042
vt 0.356908 0.843224
vt 0.362918 0.887806
vt 0.383872 0.927613
vt 0.000000 0.000000
vt 1.000000 0.000000
vt 1.000000 1.000000
vt 0.000000 1.000000
vt 0.000000 0.000000
vt 1.000000 0.000000
vt 1.000000 1.000000
vt 0.000000 1.000000
vt 0.000000 0.000000
vt 1.000000 0.000000
vt 1.000000 1.000000
vt 0.000000 1.000000
vt 0.000000 0.000000
vt 1.000000 0.000000
vt 1.000000 1.000000
vt 0.000000 1.000000
vt 0.000000 0.000000
vt 1.000000 0.000000
vt 1.000000 1.000000
vt 0.000000 1.000000
vt 0.000000 0.000000
vt 1.000000 0.000000
vt 1.000000 1.000000
vt 0.000000 1.000000
vt 0.000000 0.000000
vt 1.000000 0.000000
vt 1.000000 1.000000
vt 0.000000 1.000000
vt 0.000000 0.000000
vt 1.000000 0.000000
vt 1.000000 1.000000
vt 0.000000 1.000000
vt 0.000000 0.000000
vt 1.000000 0.000000
vt 1.000000 1.000000
vt 0.000000 1.000000
vt 0.000000 0.000000
vt 1.000000 0.000000
vt 1.000000 1.000000
vt 0.000000 1.000000
vt 0.000000 0.000000
vt 1.000000 0.000000
vt 1.000000 1.000000
vt 0.000000 1.000000
vt 0.000000 0.000000
vt 1.000000 0.000000
vt 1.000000 1.000000
vt 0.000000 1.000000
vt 0.612500 0.312500
vt 0.625000 0.312500
vt 0.625000 0.688440
vt 0.612500 0.688440
vt 0.600000 0.312500
vt 0.612500 0.312500
vt 0.612500 0.688440
vt 0.600000 0.688440
vt 0.612500 0.312500
vt 0.625000 0.312500
vt 0.625000 0.688440
vt 0.612500 0.688440
vt 0.537500 0.312500
vt 0.550000 0.312500
vt 0.550000 0.688440
vt 0.537500 0.688440
vt 0.562500 0.312500
vt 0.562500 0.688440
vt 0.475000 0.312500
vt 0.487500 0.312500
vt 0.487500 0.688440
vt 0.475000 0.688440
vt 0.500000 0.312500
vt 0.500000 0.688440
vt 0.412500 0.312500
vt 0.425000 0.312500
vt 0.425000 0.688440
vt 0.412500 0.688440
vt 0.437500 0.312500
vt 0.437500 0.688440
vn 0.826848 0.000000 -0.562425
vn 0.772623 0.000000 -0.634865
vn 0.772623 0.000000 -0.634865
vn 0.826848 0.000000 -0.562425
vn 0.630115 0.000000 -0.776502
vn 0.630115 0.000000 -0.776502
vn 0.551926 0.000000 -0.833893
vn 0.551926 0.000000 -0.833893
vn 0.020950 0.000000 -0.999781
vn -0.000000 0.000000 -1.000000
vn -0.000000 0.000000 -1.000000
vn 0.020950 0.000000 -0.999781
vn -0.020951 0.000000 -0.999780
vn -0.020951 0.000000 -0.999780
vn -0.551926 0.000000 -0.833893
vn -0.630115 0.000000 -0.776502
vn -0.630115 0.000000 -0.776502
vn -0.551926 0.000000 -0.833893
vn -0.772623 0.000000 -0.634865
vn -0.772623 0.000000 -0.634865
vn -0.826848 0.000000 -0.562425
vn -0.826848 0.000000 -0.562425
vn -0.999990 0.000000 -0.004414
vn -1.000000 0.000000 0.000000
vn -1.000000 0.000000 0.000000
vn -0.999990 0.000000 -0.004414
vn -0.999990 0.000000 0.004414
vn -0.999990 0.000000 0.004414
vn -0.826848 0.000000 0.562425
vn -0.772623 0.000000 0.634866
vn -0.772623 0.000000 0.634866
vn -0.826848 0.000000 0.562425
vn -0.630115 0.000000 0.776502
vn -0.630115 0.000000 0.776502
vn -0.551926 0.000000 0.833893
vn -0.551926 0.000000 0.833893
vn -0.020950 0.000000 0.999781
vn 0.000000 0.000000 1.000000
vn 0.000000 0.000000 1.000000
vn -0.020950 0.000000 0.999781
vn 0.020950 0.000000 0.999781
vn 0.020950 0.000000 0.999781
vn 0.551926 0.000000 0.833893
vn 0.630115 0.000000 0.776502
vn 0.630115 0.000000 0.776502
vn 0.551926 0.000000 0.833893
vn 0.772623 0.000000 0.634865
vn 0.772623 0.000000 0.634865
vn 0.826848 0.000000 0.562425
vn 0.826848 0.000000 0.562425
vn 0.999990 0.000000 0.004414
vn 0.999990 0.000000 0.004414
vn 0.999990 0.000000 0.004414
vn 0.999990 0.000000 0.004414
vn 0.999990 0.000000 -0.004412
vn 0.999990 0.000000 -0.004412
vn 0.999990 0.000000 -0.004412
vn 0.999990 0.000000 -0.004412
vn 0.000000 1.000000 0.000000
vn 0.000000 1.000000 0.000000
vn 0.000000 1.000000 0.000000
vn 0.000000 1.000000 0.000000
vn 0.000000 1.000000 0.000000
vn 0.000000 1.000000 0.000000
vn 0.000000 1.000000 0.000000
vn 0.000000 1.000000 0.000000
vn 0.000000 1.000000 0.000000
vn 0.000000 1.000000 0.000000
vn 0.000000 1.000000 0.000000
vn 0.000000 1.000000 0.000000
vn 0.000000 1.000000 0.000000
vn 0.000000 1.000000 0.000000
vn 0.000000 1.000000 0.000000
vn 0.000000 1.000000 0.000000
vn 0.000000 1.000000 0.000000
vn 0.000000 1.000000 0.000000
vn 0.000000 1.000000 0.000000
vn 0.000000 1.000000 0.000000
vn 0.000000 1.000000 0.000000
vn 0.000000 1.000000 -0.000000
vn 0.000000 1.000000 -0.000000
vn 0.000000 1.000000 -0.000000
vn 0.000000 1.000000 0.000000
vn 0.000000 1.000000 0.000000
vn 0.000000 1.000000 -0.000000
vn 0.000000 1.000000 -0.000000
vn 0.000000 1.000000 -0.000000
vn 0.000000 1.000000 -0.000000
vn 0.000000 1.000000 -0.000000
vn 0.000000 1.000000 -0.000000
vn 0.000000 1.000000 0.000000
vn 0.000000 1.000000 0.000000
vn 0.000000 1.000000 -0.000000
vn 0.000000 1.000000 -0.000000
vn 0.000000 1.000000 -0.000000
vn 0.000000 1.000000 -0.000000
vn 0.000000 1.000000 0.000000
vn 0.000000 1.000000 0.000000
vn 0.000000 1.000000 0.000000
vn 0.000000 1.000000 0.000000
vn 0.000000 0.000000 0.000000
vn 0.000000 0.000000 0.000000
vn 0.000000 0.000000 0.000000
vn 0.000000 0.000000 0.000000
vn 0.000000 0.000000 0.000000
vn 0.000000 0.000000 0.000000
vn 0.000000 0.000000 0.000000
vn 0.000000 0.000000 0.000000
vn 0.000000 0.000000 0.000000
vn 0.000000 0.000000 0.000000
vn 0.000000 0.000000 0.000000
vn 0.000000 0.000000 0.000000
vn 0.000000 0.000000 0.000000
vn 0.000000 0.000000 0.000000
vn 0.000000 0.000000 0.000000
vn 0.000000 0.000000 0.000000
vn 0.000000 0.000000 0.000000
vn 0.000000 0.000000 0.000000
vn 0.000000 0.000000 0.000000
vn 0.000000 0.000000 0.000000
vn 0.000000 0.000000 0.000000
vn 0.000000 0.000000 0.000000
vn 0.000000 0.000000 0.000000
vn 0.000000 0.000000 0.000000
vn 0.000000 0.000000 0.000000
vn 0.000000 0.000000 0.000000
vn 0.000000 0.000000 0.000000
vn 0.000000 0.000000 0.000000
vn 0.000000 0.000000 -0.000000
vn 0.000000 0.000000 -1.000000
vn 0.000000 0.000000 -1.000000
vn 0.000000 0.000000 -0.000000
vn 0.000000 0.000000 0.000000
vn 0.000000 0.000000 0.000000
vn 0.000000 0.000000 0.000000
vn 0.000000 0.000000 0.000000
vn 0.000000 0.000000 0.000000
vn 0.000000 0.000000 0.000000
vn 0.000000 0.000000 0.000000
vn 0.000000 0.000000 0.000000
vn 0.000000 0.000000 0.000000
vn 0.000000 0.000000 0.000000
vn 0.000000 0.000000 0.000000
vn 0.000000 0.000000 0.000000
vn 0.000000 0.000000 0.000000
vn 0.000000 0.000000 0.000000
vn 0.000000 0.000000 0.000000
vn 0.000000 0.000000 0.000000
vn 0.000000 0.000000 0.000000
vn 0.000000 0.000000 0.000000
vn 0.000000 0.000000 0.000000
vn 0.000000 0.000000 0.000000
vn 0.000000 0.000000 0.000000
vn 0.000000 0.000000 0.000000
vn 0.000000 0.000000 0.000000
vn 0.000000 0.000000 0.000000
vn 0.000000 0.000000 0.000000
vn 0.000000 0.000000 0.000000
vn 0.000000 0.000000 0.000000
vn 0.000000 0.000000 0.000000
vn 0.000000 0.000000 0.000000
vn 0.000000 0.000000 0.000000
vn 0.000000 0.000000 0.000000
vn 0.000000 0.000000 0.000000
vn 0.000000 -1.000000 0.000000
vn 0.000000 -1.000000 0.000000
vn 0.000000 -1.000000 0.000000
vn 0.000000 -1.000000 0.000000
vn 0.000000 0.000000 -1.000000
vn 0.000000 0.000000 -1.000000
vn 0.000000 0.000000 -1.000000
vn 0.000000 0.000000 -1.000000
vn 0.000000 1.000000 0.000000
vn 0.000000 1.000000 0.000000
vn 0.000000 1.000000 0.000000
vn 0.000000 1.000000 0.000000
vn 0.000000 0.000000 1.000000
vn 0.000000 0.000000 1.000000
vn 0.000000 0.000000 1.000000
vn 0.000000 0.000000 1.000000
vn 0.000000 -1.000000 0.000000
vn 0.000000 -1.000000 0.000000
vn 0.000000 -1.000000 0.000000
vn 0.000000 -1.000000 0.000000
vn 0.000000 0.000000 -1.000000
vn 0.000000 0.000000 -1.000000
vn 0.000000 0.000000 -1.000000
vn 0.000000 0.000000 -1.000000
vn 0.000000 1.000000 0.000000
vn 0.000000 1.000000 0.000000
vn 0.000000 1.000000 0.000000
vn 0.000000 1.000000 0.000000
vn 0.000000 0.000000 1.000000
vn 0.000000 0.000000 1.000000
vn 0.000000 0.000000 1.000000
vn 0.000000 0.000000 1.000000
vn 0.000000 -1.000000 0.000000
vn 0.000000 -1.000000 0.000000
vn 0.000000 -1.000000 0.000000
vn 0.000000 -1.000000 0.000000
vn 0.000000 1.000000 0.000000
vn 0.000000 1.000000 0.000000
vn 0.000000 1.000000 0.000000
vn 0.000000 1.000000 0.000000
vn -1.000000 0.000000 0.000000
vn -1.000000 0.000000 0.000000
vn -1.000000 0.000000 0.000000
vn -1.000000 0.000000 0.000000
vn 0.000000 -1.000000 0.000000
vn 0.000000 -1.000000 0.000000
vn 0.000000 -1.000000 0.000000
vn 0.000000 -1.000000 0.000000
vn 1.000000 0.000000 0.000000
vn 1.000000 0.000000 0.000000
vn 1.000000 0.000000 0.000000
vn 1.000000 0.000000 0.000000
vn 0.000000 1.000000 0.000000
vn 0.000000 1.000000 0.000000
vn 0.000000 1.000000 0.000000
vn 0.000000 1.000000 0.000000
vn 0.000000 -1.000000 0.000000
vn 0.000000 -1.000000 0.000000
vn 0.000000 -1.000000 0.000000
vn 0.000000 -1.000000 0.000000
vn 0.000000 1.000000 0.000000
vn 0.000000 1.000000 0.000000
vn 0.000000 1.000000 0.000000
vn 0.000000 1.000000 0.000000
vn 0.000000 0.000000 -1.000000
vn 0.000000 0.000000 -1.000000
vn 0.000000 0.000000 -1.000000
vn 0.000000 0.000000 -1.000000
vn 0.000000 -1.000000 0.000000
vn 0.000000 -1.000000 0.000000
vn 0.000000 -1.000000 0.000000
vn 0.000000 -1.000000 0.000000
vn 0.000000 0.000000 1.000000
vn 0.000000 0.000000 1.000000
vn 0.000000 0.000000 1.000000
vn 0.000000 0.000000 1.000000
vn 0.000000 1.000000 0.000000
vn 0.000000 1.000000 0.000000
vn 0.000000 1.000000 0.000000
vn 0.000000 1.000000 0.000000
vn 0.000000 -1.000000 0.000000
vn 0.000000 -1.000000 0.000000
vn 0.000000 -1.000000 0.000000
vn 0.000000 -1.000000 0.000000
vn 0.000000 1.000000 0.000000
vn 0.000000 1.000000 0.000000
vn 0.000000 1.000000 0.000000
vn 0.000000 1.000000 0.000000
vn 1.000000 0.000000 0.000000
vn 1.000000 0.000000 0.000000
vn 1.000000 0.000000 0.000000
vn 1.000000 0.000000 0.000000
vn 0.000000 -1.000000 0.000000
vn 0.000000 -1.000000 0.000000
vn 0.000000 -1.000000 0.000000
vn 0.000000 -1.000000 0.000000
vn -1.000000 0.000000 0.000000
vn -1.000000 0.000000 0.000000
vn -1.000000 0.000000 0.000000
vn -1.000000 0.000000 0.000000
vn 0.000000 1.000000 0.000000
vn 0.000000 1.000000 0.000000
vn 0.000000 1.000000 0.000000
vn 0.000000 1.000000 0.000000
s 1
g pCylinder1
usemtl initialShadingGroup
f 1/1/1 2/2/2 22/23/3 21/22/4
f 2/2/2 3/3/5 23/24/6 22/23/3
f 3/3/5 4/4/7 24/25/8 23/24/6
s 2
f 100/155/9 101/156/10 102/157/11 103/158/12
f 101/156/10 104/159/13 105/160/14 102/157/11
s 3
f 6/6/15 7/7/16 27/28/17 26/27/18
f 7/7/16 8/8/19 28/29/20 27/28/17
f 8/8/19 9/9/21 29/30/22 28/29/20
s 4
f 94/149/23 95/150/24 96/151/25 97/152/26
f 95/150/24 98/153/27 99/154/28 96/151/25
s 5
f 11/11/29 12/12/30 32/33/31 31/32/32
f 12/12/30 13/13/33 33/34/34 32/33/31
f 13/13/33 14/14/35 34/35/36 33/34/34
s 6
f 88/143/37 89/144/38 90/145/39 91/146/40
f 89/144/38 92/147/41 93/148/42 90/145/39
s 7
f 16/16/43 17/17/44 37/38/45 36/37/46
f 17/17/44 18/18/47 38/39/48 37/38/45
f 18/18/47 19/19/49 39/40/50 38/39/48
s off
f 80/135/51 81/136/52 82/137/53 83/138/54
f 84/139/55 85/140/56 86/141/57 87/142/58
s 8
f 21/61/59 22/60/60 46/68/61 47/69/62
f 22/60/60 23/59/63 45/67/64 46/68/61
f 23/59/63 24/58/65 44/66/66 45/67/64
f 24/58/65 25/57/67 43/65/68 44/66/66
f 25/57/67 26/56/69 42/64/70 43/65/68
f 26/56/69 27/55/71 41/63/72 42/64/70
f 27/55/71 28/54/73 60/82/74 41/63/72
f 28/54/73 29/53/75 59/81/76 60/82/74
f 29/53/75 30/52/77 58/80/78 59/81/76
f 30/52/77 31/51/79 57/79/80 58/80/78
f 31/51/79 32/50/81 56/78/82 57/79/80
f 32/50/81 33/49/83 55/77/84 56/78/82
f 33/49/83 34/48/85 54/76/86 55/77/84
f 34/48/85 35/47/87 53/75/88 54/76/86
f 35/47/87 36/46/89 52/74/90 53/75/88
f 36/46/89 37/45/91 51/73/92 52/74/90
f 37/45/91 38/44/93 50/72/94 51/73/92
f 38/44/93 39/43/95 49/71/96 50/72/94
f 39/43/95 40/62/97 48/70/98 49/71/96
f 40/62/99 21/61/59 47/69/62 48/70/100
s off
f 20/83/101 19/84/102 61/85/103 62/86/104
f 40/87/105 21/88/106 64/89/107 63/90/108
f 19/91/109 20/92/110 66/93/111 65/94/112
f 1/95/113 20/96/114 66/97/115 67/98/116
f 39/99/117 40/100/118 69/101/119 68/102/120
f 40/103/121 21/104/122 70/105/123 69/106/124
f 20/107/125 40/108/126 69/109/127 66/110/128
f 40/111/129 48/112/130 71/113/131 69/114/132
f 20/115/133 62/116/134 72/117/135 66/118/136
f 62/119/137 61/120/138 73/121/139 72/122/140
f 40/123/141 63/124/142 74/125/143 69/126/144
f 63/127/145 64/128/146 75/129/147 74/130/148
f 20/20/149 1/21/150 77/132/151 76/131/152
f 1/21/153 21/42/154 78/133/155 77/132/156
f 21/42/157 40/41/158 79/134/159 78/133/160
f 40/41/161 20/20/162 76/131/163 79/134/164
f 19/19/165 20/20/166 81/136/167 80/135/168
f 20/20/169 40/41/170 82/137/171 81/136/172
f 40/41/173 39/40/174 83/138/175 82/137/176
f 39/40/177 19/19/178 80/135/179 83/138/180
f 76/131/181 77/132/182 85/140/183 84/139/184
f 77/132/185 78/133/186 86/141/187 85/140/188
f 78/133/189 79/134/190 87/142/191 86/141/192
f 79/134/193 76/131/194 84/139/195 87/142/196
f 14/14/197 15/15/198 89/144/199 88/143/200
f 35/36/201 34/35/202 91/146/203 90/145/204
f 34/35/205 14/14/206 88/143/207 91/146/208
f 15/15/209 16/16/210 92/147/211 89/144/212
f 16/16/213 36/37/214 93/148/215 92/147/216
f 36/37/217 35/36/218 90/145/219 93/148/220
f 9/9/221 10/10/222 95/150/223 94/149/224
f 30/31/225 29/30/226 97/152/227 96/151/228
f 29/30/229 9/9/230 94/149/231 97/152/232
f 10/10/233 11/11/234 98/153/235 95/150/236
f 11/11/237 31/32/238 99/154/239 98/153/240
f 31/32/241 30/31/242 96/151/243 99/154/244
f 4/4/245 5/5/246 101/156/247 100/155/248
f 25/26/249 24/25/250 103/158/251 102/157/252
f 24/25/253 4/4/254 100/155/255 103/158/256
f 5/5/257 6/6/258 104/159/259 101/156/260
f 6/6/261 26/27/262 105/160/263 104/159/264
f 26/27/265 25/26/266 102/157/267 105/160/268
